name processed_emg_signals
 datacolumns 7
 datarows 65
 range 3.279 3.343 
 endheader
Time	RGLTMED	RRF	RADDLONG	RBF	RTA	RGM
3.279	0.0156703130020983	0.0232479340592973	0.0227627640547865	0.0110042186004335	0.0091777253643575	0.0228255618396285
3.2800000000000002	0.015708695662281	0.0231222631574932	0.0225255070242595	0.0109929915238554	0.0092379283555906	0.023008892947125
3.2809999999999997	0.0157461398832462	0.0229908894353819	0.0222828863830296	0.0109828490474906	0.0092958077340594	0.0231927276888655
3.282	0.0157825972091069	0.0228539745121404	0.0220351443365904	0.0109738096841012	0.0093513154886033	0.023376684389236
3.283	0.0158180208416947	0.0227116890013813	0.021782527840896	0.0109658899414662	0.0094044074759792	0.0235603854947915
3.284	0.015852365740291	0.0225642123545374	0.0215252882902015	0.0109591042694913	0.0094550433723154	0.0237434579835436
3.285	0.0158855887147891	0.0224117326914613	0.0212636812017332	0.0109534650120339	0.009503186622563	0.02392553377094
3.286	0.0159176485118874	0.0222544466185115	0.0209979658977416	0.010948982363546	0.0095488043881643	0.0241062501123295
3.287	0.0159485058939115	0.0220925590344021	0.0207284051855085	0.0109456643306091	0.0095918674931476	0.0242852500016915
3.2880000000000003	0.0159781237099007	0.0219262829240969	0.0204552650359005	0.0109435166984129	0.0096323503688377	0.0244621825663947
3.2889999999999997	0.0160064669586551	0.0217558391410152	0.0201788142610677	0.0109425430022019	0.0096702309973604	0.0246367034577124
3.29	0.0160335028435344	0.0215814561778202	0.0198993241918756	0.0109427445036976	0.0097054908541022	0.0248084752367735
3.291	0.0160592008188566	0.0214033699260753	0.0196170683556195	0.0109441201724883	0.0097381148492731	0.0249771677555685
3.292	0.0160835326277838	0.0212218234250993	0.0193323221545278	0.0109466666723685	0.0097680912687125	0.0251424585325678
3.293	0.0161064723315712	0.0210370666004207	0.0190453625455241	0.0109503783525965	0.0097954117140635	0.0253040331224667
3.294	0.0161279963300453	0.0208493559922886	0.0187564677217059	0.0109552472440234	0.0098200710424293	0.0254615854795469
3.295	0.0161480833731725	0.0206589544747319	0.018465916795996	0.0109612630600315	0.0098420673056133	0.0256148183141254
3.2960000000000003	0.0161667145636127	0.020466130965665	0.0181739894874322	0.0109684132021991	0.0098614016890338	0.0257634434415444
3.2969999999999997	0.0161838733502347	0.0202711601285434	0.0178809658105566	0.0109766827705969	0.0098780784503838	0.025907182123124
3.298	0.0161995455127045	0.0200743220660807	0.0175871257683536	0.0109860545786105	0.0098921048580853	0.0260457653984636
3.299	0.0162137191374195	0.0198759020065389	0.0172927490491656	0.0109965091721938	0.0099034911295635	0.0261789344084319
3.3	0.0162263845852003	0.0196761899831123	0.0169981147279964	0.0110080248534658	0.0099122503693419	0.0263064407081425
3.301	0.0162375344512454	0.0194754805069592	0.0167035009726022	0.0110205777085738	0.0099183985069458	0.026428046569163
3.302	0.0162471635178907	0.0192740722344901	0.0164091847547544	0.0110341416397428	0.0099219542345812	0.0265435252701643
3.303	0.0162552687007204	0.0190722676295873	0.016115441567048	0.0110486884014258	0.0099229389445457	0.0266526613751709
3.3040000000000003	0.0162618489885642	0.0188703726214663	0.0158225451456071	0.0110641876404612	0.0099213766663013	0.0267552509985322
3.3049999999999997	0.0162669053779178	0.0186686962588876	0.0155307671990176	0.011080606940129	0.0099172940031263	0.0268511020557017
3.306	0.0162704408023543	0.0184675503613922	0.0152403771438043	0.0110979118679819	0.0099107200682467	0.0269400344989037
3.307	0.0162724600575411	0.0182672491681888	0.0149516418467697	0.0111160660273057	0.0099016864203434	0.0270218805367746
3.308	0.0162729697225209	0.0180681089852784	0.014664825374528	0.0111350311120472	0.0098902269983239	0.0270964848370839
3.309	0.01627197807793	0.0178704478313809	0.0143801887505782	0.0111547669650333	0.0098763780552497	0.0271637047116305
3.31	0.0162694950218012	0.0176745850832149	0.0140979897202551	0.0111752316393018	0.009860178091299	0.0272234102823966
3.311	0.0162655319835593	0.0174808411206846	0.0138184825238657	0.0111963814623573	0.0098416677856378	0.0272754846280245
3.3120000000000003	0.0162601018367581	0.0172895369725309	0.013541917678277	0.01121817110317	0.0098208899270555	0.0273198239096626
3.3129999999999997	0.0162532188110608	0.0171009939630068	0.0132685417671704	0.0112405536417247	0.0097978893432051	0.0273563374751995
3.314	0.0162448984039137	0.0169155333601363	0.01299859724013	0.0112634806409341	0.00977271282827	0.027384947940839
3.315	0.0162351572923279	0.0167334760261035	0.0127323222206833	0.0112869022207352	0.0097454090688719	0.0274055912488961
3.316	0.0162240132451421	0.016555142070303	0.0124699503233724	0.0113107671342001	0.0097160285680232	0.0274182167006253
3.317	0.0162114850361134	0.016380850505559	0.0122117104798899	0.0113350228454967	0.0096846235669361	0.0274227869628883
3.318	0.0161975923581488	0.0162109189079936	0.0119578267742834	0.0113596156095207	0.0096512479645129	0.0274192780475739
3.319	0.0161823557389732	0.0160456630809907	0.0117085182872075	0.0113844905530009	0.0096159572343812	0.0274076792629099
3.3200000000000003	0.016165796458507	0.0158853967236543	0.011463998949178	0.0114095917568525	0.0095788083394017	0.0273879931361325
3.3209999999999997	0.0161479364682165	0.0157304311041212	0.011224477402764	0.0114348623395605	0.0095398596436554	0.0273602353073478
3.322	0.0161287983126909	0.0155810747380455	0.0109901568736344	0.0114602445414171	0.0094991708219977	0.0273244343947925
3.323	0.0161084050537032	0.0154376330725499	0.0107612350503595	0.0114856798095367	0.0094568027673483	0.0272806318320183
3.324	0.0160867801970096	0.0153004081759104	0.0105379039728638	0.0115111088836804	0.0094128174959524	0.027228881677759
3.325	0.0160639476221335	0.0151696984332188	0.0103203499294205	0.0115364718830062	0.0093672780509017	0.0271692503993807
3.326	0.0160399315153618	0.015045798248235	0.0101087533620794	0.0115617083938929	0.0093202484042233	0.0271018166309254
3.327	0.0160147563061562	0.0149289977516059	0.0099032887804241	0.0115867575589921	0.0092717933578473	0.0270266709068334
3.3280000000000003	0.0159884466071578	0.0148195825155941	0.0097041246835464	0.0116115581676465	0.0092219784437495	0.026943915372511
3.3289999999999997	0.0159610271579404	0.0147178332754213	0.009511423490122	0.0116360487478058	0.009170869823552	0.0268536634729882
3.33	0.0159325227726405	0.0146240256572949	0.0093253414764488	0.0116601676595538	0.0091185341878458	0.0267560396209758
3.331	0.0159029582915747	0.0145384299131452	0.009146028722303	0.0116838531903362	0.0090650386554882	0.0266511788456655
3.332	0.0158723585369403	0.014461310662068	0.0089736290644554	0.0117070436519509	0.0090104506731153	0.026539226423612
3.333	0.0158407482726965	0.0143929266384266	0.0088082800576921	0.0117296774793312	0.0089548379150976	0.0264203374930295
3.3339999999999996	0.0158081521687206	0.014333530446541	0.0086501129431768	0.0117516933311302	0.0088982681841575	0.0262946766528092
3.335	0.0157745947693266	0.0142833683218622	0.0084992526239779	0.011773030192096	0.008840809312852	0.0261624175475377
3.336	0.0157401004662208	0.014242679898518	0.0083558176475636	0.0117936274772182	0.0087825290661192	0.0260237424397645
3.3369999999999997	0.0157046934759554	0.0142116979831239	0.0082199201950434	0.0118134251376109	0.0087234950450742	0.0258788417707296
3.338	0.0156683978219263	0.0141906483347634	0.008091666076911	0.011832363768079	0.0086637745922242	0.0257279137107346
3.339	0.015631237320942	0.0141797494510494	0.007971154735028	0.0118503847162852	0.008603434698259	0.0255711637002966
3.34	0.0155932355743729	0.0141792123601737	0.0078584792505751	0.0118674301933989	0.0085425419105541	0.0254088039832086
3.341	0.0155544159638578	0.0141892404188463	0.007753726357689	0.0118834433860733	0.0084811622435079	0.0252410531326228
3.3419999999999996	0.0155148016515093	0.014210029116028	0.0076569764625046	0.011898368569563	0.0084193610908207	0.0250681355713009
3.343	0.0154744155845215	0.0142417658823727	0.0075683036673206	0.0119121512217664	0.0083572031397994	0.0248902810872002
